<?xml version="1.0" standalone="no"?>
<svg xmlns:xlink="http://www.w3.org/1999/xlink" id="wave" style="transform:rotate(0deg); transition: 0.3s" viewBox="0 0 1440 180" version="1.1" xmlns="http://www.w3.org/2000/svg"><defs><linearGradient id="sw-gradient-0" x1="0" x2="0" y1="1" y2="0"><stop stop-color="rgba(43.579, 17.589, 9.242, 1)" offset="0%"/><stop stop-color="rgba(255, 175.826, 0.81, 1)" offset="100%"/></linearGradient></defs><path style="transform:translate(0, 0px); opacity:1" fill="url(#sw-gradient-0)" d="M0,108L80,90C160,72,320,36,480,39C640,42,800,84,960,87C1120,90,1280,54,1440,39C1600,24,1760,30,1920,27C2080,24,2240,12,2400,33C2560,54,2720,108,2880,126C3040,144,3200,126,3360,102C3520,78,3680,48,3840,42C4000,36,4160,54,4320,72C4480,90,4640,108,4800,99C4960,90,5120,54,5280,45C5440,36,5600,54,5760,57C5920,60,6080,48,6240,42C6400,36,6560,36,6720,57C6880,78,7040,120,7200,138C7360,156,7520,150,7680,126C7840,102,8000,60,8160,54C8320,48,8480,78,8640,102C8800,126,8960,144,9120,132C9280,120,9440,78,9600,69C9760,60,9920,84,10080,102C10240,120,10400,132,10560,114C10720,96,10880,48,11040,33C11200,18,11360,36,11440,45L11520,54L11520,180L11440,180C11360,180,11200,180,11040,180C10880,180,10720,180,10560,180C10400,180,10240,180,10080,180C9920,180,9760,180,9600,180C9440,180,9280,180,9120,180C8960,180,8800,180,8640,180C8480,180,8320,180,8160,180C8000,180,7840,180,7680,180C7520,180,7360,180,7200,180C7040,180,6880,180,6720,180C6560,180,6400,180,6240,180C6080,180,5920,180,5760,180C5600,180,5440,180,5280,180C5120,180,4960,180,4800,180C4640,180,4480,180,4320,180C4160,180,4000,180,3840,180C3680,180,3520,180,3360,180C3200,180,3040,180,2880,180C2720,180,2560,180,2400,180C2240,180,2080,180,1920,180C1760,180,1600,180,1440,180C1280,180,1120,180,960,180C800,180,640,180,480,180C320,180,160,180,80,180L0,180Z"/></svg>