<?xml version="1.0" standalone="no"?>
<svg xmlns:xlink="http://www.w3.org/1999/xlink" id="wave" style="transform:rotate(180deg); transition: 0.3s" viewBox="0 0 1440 140" version="1.1" xmlns="http://www.w3.org/2000/svg"><defs><linearGradient id="sw-gradient-0" x1="0" x2="0" y1="1" y2="0"><stop stop-color="rgba(0, 0, 0, 1)" offset="0%"/><stop stop-color="rgba(255, 179, 11, 1)" offset="100%"/></linearGradient></defs><path style="transform:translate(0, 0px); opacity:1" fill="url(#sw-gradient-0)" d="M0,98L26.7,95.7C53.3,93,107,89,160,77C213.3,65,267,47,320,37.3C373.3,28,427,28,480,44.3C533.3,61,587,93,640,102.7C693.3,112,747,98,800,98C853.3,98,907,112,960,102.7C1013.3,93,1067,61,1120,60.7C1173.3,61,1227,93,1280,91C1333.3,89,1387,51,1440,49C1493.3,47,1547,79,1600,93.3C1653.3,107,1707,103,1760,102.7C1813.3,103,1867,107,1920,100.3C1973.3,93,2027,75,2080,72.3C2133.3,70,2187,84,2240,95.7C2293.3,107,2347,117,2400,119C2453.3,121,2507,117,2560,114.3C2613.3,112,2667,112,2720,100.3C2773.3,89,2827,65,2880,58.3C2933.3,51,2987,61,3040,60.7C3093.3,61,3147,51,3200,58.3C3253.3,65,3307,89,3360,95.7C3413.3,103,3467,93,3520,88.7C3573.3,84,3627,84,3680,81.7C3733.3,79,3787,75,3813,72.3L3840,70L3840,140L3813.3,140C3786.7,140,3733,140,3680,140C3626.7,140,3573,140,3520,140C3466.7,140,3413,140,3360,140C3306.7,140,3253,140,3200,140C3146.7,140,3093,140,3040,140C2986.7,140,2933,140,2880,140C2826.7,140,2773,140,2720,140C2666.7,140,2613,140,2560,140C2506.7,140,2453,140,2400,140C2346.7,140,2293,140,2240,140C2186.7,140,2133,140,2080,140C2026.7,140,1973,140,1920,140C1866.7,140,1813,140,1760,140C1706.7,140,1653,140,1600,140C1546.7,140,1493,140,1440,140C1386.7,140,1333,140,1280,140C1226.7,140,1173,140,1120,140C1066.7,140,1013,140,960,140C906.7,140,853,140,800,140C746.7,140,693,140,640,140C586.7,140,533,140,480,140C426.7,140,373,140,320,140C266.7,140,213,140,160,140C106.7,140,53,140,27,140L0,140Z"/></svg>