<?xml version="1.0" standalone="no"?>
<svg xmlns:xlink="http://www.w3.org/1999/xlink" id="wave" style="transform:rotate(180deg); transition: 0.3s" viewBox="0 0 1440 140" version="1.1" xmlns="http://www.w3.org/2000/svg"><defs><linearGradient id="sw-gradient-0" x1="0" x2="0" y1="1" y2="0"><stop stop-color="rgba(0, 0, 0, 1)" offset="0%"/><stop stop-color="rgba(255, 179, 11, 1)" offset="100%"/></linearGradient></defs><path style="transform:translate(0, 0px); opacity:1" fill="url(#sw-gradient-0)" d="M0,98L80,95.7C160,93,320,89,480,77C640,65,800,47,960,37.3C1120,28,1280,28,1440,44.3C1600,61,1760,93,1920,102.7C2080,112,2240,98,2400,98C2560,98,2720,112,2880,102.7C3040,93,3200,61,3360,60.7C3520,61,3680,93,3840,91C4000,89,4160,51,4320,49C4480,47,4640,79,4800,93.3C4960,107,5120,103,5280,102.7C5440,103,5600,107,5760,100.3C5920,93,6080,75,6240,72.3C6400,70,6560,84,6720,95.7C6880,107,7040,117,7200,119C7360,121,7520,117,7680,114.3C7840,112,8000,112,8160,100.3C8320,89,8480,65,8640,58.3C8800,51,8960,61,9120,60.7C9280,61,9440,51,9600,58.3C9760,65,9920,89,10080,95.7C10240,103,10400,93,10560,88.7C10720,84,10880,84,11040,81.7C11200,79,11360,75,11440,72.3L11520,70L11520,140L11440,140C11360,140,11200,140,11040,140C10880,140,10720,140,10560,140C10400,140,10240,140,10080,140C9920,140,9760,140,9600,140C9440,140,9280,140,9120,140C8960,140,8800,140,8640,140C8480,140,8320,140,8160,140C8000,140,7840,140,7680,140C7520,140,7360,140,7200,140C7040,140,6880,140,6720,140C6560,140,6400,140,6240,140C6080,140,5920,140,5760,140C5600,140,5440,140,5280,140C5120,140,4960,140,4800,140C4640,140,4480,140,4320,140C4160,140,4000,140,3840,140C3680,140,3520,140,3360,140C3200,140,3040,140,2880,140C2720,140,2560,140,2400,140C2240,140,2080,140,1920,140C1760,140,1600,140,1440,140C1280,140,1120,140,960,140C800,140,640,140,480,140C320,140,160,140,80,140L0,140Z"/></svg>